<svg width="650" height="200" viewBox="0 0 650 200" fill="none" xmlns="http://www.w3.org/2000/svg">
<path d="M176 136V135L178 134.3C180.267 133.567 181.4 131.667 181.4 128.6V77.4C181.4 76.0667 181.233 75 180.9 74.2C180.633 73.4 179.867 72.7333 178.6 72.2L176 71V70H195.3L213.8 118.4L231.2 70H250.9V71L249.3 71.6C248.033 72.0667 247.167 72.7333 246.7 73.6C246.233 74.4 246 75.4667 246 76.8V129.1C246 130.433 246.167 131.467 246.5 132.2C246.833 132.933 247.633 133.567 248.9 134.1L250.9 135V136H226V135L228.1 134.1C229.367 133.567 230.167 132.933 230.5 132.2C230.833 131.467 231 130.433 231 129.1V106.6L231.2 78L210.3 136H205.3L183.5 78.7L183.8 103.6V128.8C183.8 130.267 184 131.467 184.4 132.4C184.867 133.267 185.733 133.9 187 134.3L189.2 135V136H176ZM277.565 86.4C281.898 86.4 285.598 87.3 288.665 89.1C291.732 90.8333 294.065 93.2333 295.665 96.3C297.332 99.3 298.165 102.733 298.165 106.6C298.165 107.333 298.132 108.1 298.065 108.9C297.998 109.633 297.865 110.3 297.665 110.9H267.865C267.932 118.1 269.198 123.3 271.665 126.5C274.198 129.633 277.932 131.2 282.865 131.2C286.198 131.2 288.898 130.667 290.965 129.6C293.032 128.533 294.965 126.967 296.765 124.9L297.765 125.8C295.698 129.467 292.932 132.333 289.465 134.4C286.065 136.467 281.965 137.5 277.165 137.5C272.432 137.5 268.232 136.5 264.565 134.5C260.898 132.433 258.032 129.5 255.965 125.7C253.898 121.9 252.865 117.367 252.865 112.1C252.865 106.633 254.065 102 256.465 98.2C258.865 94.3333 261.932 91.4 265.665 89.4C269.465 87.4 273.432 86.4 277.565 86.4ZM277.265 88.4C275.332 88.4 273.665 89 272.265 90.2C270.932 91.3333 269.865 93.4 269.065 96.4C268.332 99.3333 267.932 103.5 267.865 108.9H284.965C285.632 101.633 285.365 96.4 284.165 93.2C282.965 90 280.665 88.4 277.265 88.4ZM322.148 137.5C317.882 137.5 314.548 136.433 312.148 134.3C309.815 132.167 308.648 128.767 308.648 124.1V89.9H301.748V88.9L304.148 88.5C306.215 88.0333 307.982 87.3667 309.448 86.5C310.982 85.6333 312.482 84.4667 313.948 83L322.148 73.9H323.148L322.848 87.9H334.048V89.9H322.748V125.9C322.748 128.233 323.248 130 324.248 131.2C325.315 132.4 326.648 133 328.248 133C329.648 133 330.882 132.667 331.948 132C333.015 131.267 334.082 130.3 335.148 129.1L336.148 130.1C334.815 132.367 332.982 134.167 330.648 135.5C328.315 136.833 325.482 137.5 322.148 137.5ZM353.881 137.5C350.015 137.5 346.748 136.4 344.081 134.2C341.481 132 340.181 128.833 340.181 124.7C340.181 121.567 341.781 118.7 344.981 116.1C348.181 113.433 353.215 111.433 360.081 110.1C361.148 109.9 362.348 109.7 363.681 109.5C365.015 109.233 366.415 108.967 367.881 108.7V100.8C367.881 96.2667 367.315 93.1 366.181 91.3C365.115 89.4333 363.415 88.5 361.081 88.5C359.481 88.5 358.215 89.0333 357.281 90.1C356.348 91.1 355.748 92.8667 355.481 95.4L355.281 96.5C355.148 99.3667 354.448 101.467 353.181 102.8C351.915 104.133 350.348 104.8 348.481 104.8C346.748 104.8 345.315 104.267 344.181 103.2C343.048 102.133 342.481 100.7 342.481 98.9C342.481 96.1667 343.415 93.8667 345.281 92C347.215 90.1333 349.748 88.7333 352.881 87.8C356.015 86.8667 359.415 86.4 363.081 86.4C369.015 86.4 373.581 87.8667 376.781 90.8C380.048 93.6667 381.681 98.3667 381.681 104.9V127C381.681 130 383.081 131.5 385.881 131.5H388.081L388.981 132.3C387.715 133.9 386.315 135.133 384.781 136C383.315 136.867 381.215 137.3 378.481 137.3C375.548 137.3 373.215 136.633 371.481 135.3C369.815 133.9 368.715 132.067 368.181 129.8C366.181 131.933 364.115 133.767 361.981 135.3C359.915 136.767 357.215 137.5 353.881 137.5ZM359.981 131.4C361.315 131.4 362.548 131.1 363.681 130.5C364.881 129.833 366.281 128.833 367.881 127.5V110.7C367.215 110.833 366.548 110.967 365.881 111.1C365.215 111.233 364.448 111.367 363.581 111.5C360.515 112.3 358.048 113.667 356.181 115.6C354.381 117.467 353.481 120 353.481 123.2C353.481 125.933 354.115 128 355.381 129.4C356.648 130.733 358.181 131.4 359.981 131.4ZM409.586 136.3L394.186 94C393.453 91.8667 391.986 90.3667 389.786 89.5L388.086 88.9V87.9H412.586V88.9L411.086 89.3C408.486 90.1 407.619 91.7 408.486 94.1L417.786 122.4L426.086 100.4L424.186 94.7C423.719 93.2333 423.219 92.1333 422.686 91.4C422.219 90.6 421.586 90.0333 420.786 89.7L419.086 88.9V87.9H439.786V88.9L438.386 89.5C437.386 89.9 436.786 90.4333 436.586 91.1C436.386 91.7667 436.519 92.7667 436.986 94.1L446.186 121.9L455.686 94.3C456.619 91.7667 456.119 90.1667 454.186 89.5L451.986 88.9V87.9H463.986V88.9L461.586 89.6C460.453 89.9333 459.619 90.4667 459.086 91.2C458.619 91.8667 458.186 92.8 457.786 94L443.386 136.3H438.286L427.186 103.6L415.386 136.3H409.586ZM467.211 136V135L468.711 134.6C470.044 134.2 470.944 133.6 471.411 132.8C471.944 132 472.211 130.967 472.211 129.7V98.4C472.211 96.9333 471.944 95.8667 471.411 95.2C470.944 94.4667 470.044 93.9667 468.711 93.7L467.211 93.3V92.3L484.411 86.5L485.411 87.5L486.311 96.1V96.9C487.244 95.0333 488.444 93.3333 489.911 91.8C491.444 90.2 493.111 88.9 494.911 87.9C496.778 86.9 498.611 86.4 500.411 86.4C502.944 86.4 504.878 87.1 506.211 88.5C507.544 89.9 508.211 91.6667 508.211 93.8C508.211 96.0667 507.544 97.8333 506.211 99.1C504.944 100.3 503.411 100.9 501.611 100.9C498.811 100.9 496.344 99.5 494.211 96.7L494.011 96.5C493.344 95.5667 492.578 95.0667 491.711 95C490.844 94.8667 490.044 95.2667 489.311 96.2C488.644 96.8 488.078 97.5333 487.611 98.4C487.211 99.2 486.811 100.133 486.411 101.2V129.1C486.411 131.767 487.578 133.433 489.911 134.1L493.111 135V136H467.211ZM523.352 81.2C521.085 81.2 519.152 80.5 517.552 79.1C516.018 77.6333 515.252 75.8 515.252 73.6C515.252 71.3333 516.018 69.5 517.552 68.1C519.152 66.7 521.085 66 523.352 66C525.618 66 527.518 66.7 529.052 68.1C530.585 69.5 531.352 71.3333 531.352 73.6C531.352 75.8 530.585 77.6333 529.052 79.1C527.518 80.5 525.618 81.2 523.352 81.2ZM511.552 136V135L512.952 134.6C514.285 134.2 515.185 133.6 515.652 132.8C516.185 132 516.452 130.933 516.452 129.6V98.3C516.452 96.9 516.185 95.8667 515.652 95.2C515.185 94.4667 514.285 93.9667 512.952 93.7L511.552 93.4V92.4L529.852 86.5L530.852 87.5L530.552 101.7V129.7C530.552 131.033 530.785 132.1 531.252 132.9C531.785 133.7 532.685 134.3 533.952 134.7L534.952 135V136H511.552ZM558.379 137.5C554.112 137.5 550.779 136.433 548.379 134.3C546.046 132.167 544.879 128.767 544.879 124.1V89.9H537.979V88.9L540.379 88.5C542.446 88.0333 544.212 87.3667 545.679 86.5C547.212 85.6333 548.712 84.4667 550.179 83L558.379 73.9H559.379L559.079 87.9H570.279V89.9H558.979V125.9C558.979 128.233 559.479 130 560.479 131.2C561.546 132.4 562.879 133 564.479 133C565.879 133 567.112 132.667 568.179 132C569.246 131.267 570.312 130.3 571.379 129.1L572.379 130.1C571.046 132.367 569.212 134.167 566.879 135.5C564.546 136.833 561.712 137.5 558.379 137.5ZM600.319 86.4C604.652 86.4 608.352 87.3 611.419 89.1C614.485 90.8333 616.819 93.2333 618.419 96.3C620.085 99.3 620.919 102.733 620.919 106.6C620.919 107.333 620.885 108.1 620.819 108.9C620.752 109.633 620.619 110.3 620.419 110.9H590.619C590.685 118.1 591.952 123.3 594.419 126.5C596.952 129.633 600.685 131.2 605.619 131.2C608.952 131.2 611.652 130.667 613.719 129.6C615.785 128.533 617.719 126.967 619.519 124.9L620.519 125.8C618.452 129.467 615.685 132.333 612.219 134.4C608.819 136.467 604.719 137.5 599.919 137.5C595.185 137.5 590.985 136.5 587.319 134.5C583.652 132.433 580.785 129.5 578.719 125.7C576.652 121.9 575.619 117.367 575.619 112.1C575.619 106.633 576.819 102 579.219 98.2C581.619 94.3333 584.685 91.4 588.419 89.4C592.219 87.4 596.185 86.4 600.319 86.4ZM600.019 88.4C598.085 88.4 596.419 89 595.019 90.2C593.685 91.3333 592.619 93.4 591.819 96.4C591.085 99.3333 590.685 103.5 590.619 108.9H607.719C608.385 101.633 608.119 96.4 606.919 93.2C605.719 90 603.419 88.4 600.019 88.4Z" fill="black"/>
<path d="M135 75L87 58L39 75V135L87 152L135 135V75Z" fill="white"/>
<path d="M135 75L87 58L39 75V135L87 152L135 135V75ZM135 75L87 58Z" fill="white"/>
<path d="M87 155C86.7 155 86.3 154.9 86 154.8L38 137.8C36.8 137.4 36 136.2 36 135V75C36 73.7 36.8 72.6 38 72.2L86 55.2C87.6 54.6 89.3 55.5 89.8 57C90.4 58.6 89.5 60.3 88 60.8L42 77.1V132.9L88 149.2C89.6 149.8 90.4 151.5 89.8 153C89.4 154.2 88.2 155 87 155Z" fill="#444B54"/>
<path d="M135 75L87 58L135 75ZM135 75L87 58Z" fill="white"/>
<path d="M57 93.9V83.1C57 81.8 57.8 80.7 59 80.3L105 64L117 68L70 84.3C68.8 84.7 68 85.9 68 87.1V97.1C68 98.5 66.6 99.5 65.3 99L59 96.7C57.8 96.3 57 95.2 57 93.9Z" fill="#FF3E00"/>
<path d="M138 74.8C138 74.7 138 74.6 138 74.4C138 74.4 138 74.4 138 74.3C138 74.2 137.9 74 137.9 73.9C137.6 73.1 136.9 72.4 136.2 72.1C136.2 72.1 136.1 72.1 136.1 72L88.1 55C88.1 55 88.1 55 88 55C87.4 54.8 86.7 54.8 86.1 55L38.1 72C36.9 72.4 36.1 73.6 36.1 74.8V134.8C36.1 136.1 36.9 137.2 38.1 137.6L86.1 154.6C86.4 154.7 86.8 154.8 87.1 154.8C87.4 154.8 87.8 154.7 88.1 154.6L136.1 137.6C137.3 137.2 138.1 136 138.1 134.8V75C138 74.9 138 74.9 138 74.8ZM42 77.1L87 61.2L126 75L86 89.2C86 89.2 86 89.2 85.9 89.2C84.8 89.6 84 90.7 84 92V147.8L42 132.9V77.1ZM90 147.8V94.1L132 79.2V132.8L90 147.8Z" fill="black"/>
</svg>
